<?xml version="1.0" encoding="UTF-8"?>
<!DOCTYPE svg PUBLIC "-//W3C//DTD SVG 1.1//EN" "http://www.w3.org/Graphics/SVG/1.1/DTD/svg11.dtd">
<!-- Creator: CorelDRAW X7 -->
<svg xmlns="http://www.w3.org/2000/svg" xml:space="preserve" width="1024px" height="329px" version="1.1" style="shape-rendering:geometricPrecision; text-rendering:geometricPrecision; image-rendering:optimizeQuality; fill-rule:evenodd; clip-rule:evenodd"
viewBox="0 0 10240 3290"
 xmlns:xlink="http://www.w3.org/1999/xlink">
 <defs>
  <style type="text/css">
   <![CDATA[
    .str0 {stroke:#A9ABAE;stroke-width:9.00001;stroke-linecap:round;stroke-linejoin:round}
    .fil5 {fill:#FEFEFE}
    .fil8 {fill:#373435}
    .fil0 {fill:#F7DF52}
    .fil4 {fill:#FEFEFE;fill-rule:nonzero}
    .fil3 {fill:#373435;fill-rule:nonzero}
    .fil10 {fill:url(#id0)}
    .fil7 {fill:url(#id1)}
    .fil14 {fill:url(#id2)}
    .fil2 {fill:url(#id3)}
    .fil16 {fill:url(#id4)}
    .fil15 {fill:url(#id5)}
    .fil12 {fill:url(#id6)}
    .fil13 {fill:url(#id7)}
    .fil9 {fill:url(#id8)}
    .fil6 {fill:url(#id9)}
    .fil11 {fill:url(#id10)}
    .fil1 {fill:url(#id11)}
    .fil18 {fill:url(#id12);fill-rule:nonzero}
    .fil19 {fill:url(#id13);fill-rule:nonzero}
    .fil21 {fill:url(#id14);fill-rule:nonzero}
    .fil20 {fill:url(#id15);fill-rule:nonzero}
    .fil17 {fill:url(#id16);fill-rule:nonzero}
   ]]>
  </style>
  <linearGradient id="id0" gradientUnits="userSpaceOnUse" x1="7784.37" y1="1709.84" x2="7784.37" y2="1553.49">
   <stop offset="0" style="stop-opacity:1; stop-color:#9A3B3E"/>
   <stop offset="1" style="stop-opacity:1; stop-color:#FEFEFE"/>
  </linearGradient>
  <linearGradient id="id1" gradientUnits="userSpaceOnUse" xlink:href="#id0" x1="7374.57" y1="1709.84" x2="7374.57" y2="1553.49">
  </linearGradient>
  <linearGradient id="id2" gradientUnits="userSpaceOnUse" xlink:href="#id0" x1="1056.82" y1="1396.67" x2="1056.82" y2="967.572">
  </linearGradient>
  <linearGradient id="id3" gradientUnits="userSpaceOnUse" x1="7589.53" y1="2101.74" x2="7589.53" y2="1931.52">
   <stop offset="0" style="stop-opacity:1; stop-color:#C54443"/>
   <stop offset="1" style="stop-opacity:1; stop-color:#2E2A2A"/>
  </linearGradient>
  <linearGradient id="id4" gradientUnits="userSpaceOnUse" xlink:href="#id0" x1="2181.54" y1="1396.67" x2="2181.54" y2="967.572">
  </linearGradient>
  <linearGradient id="id5" gradientUnits="userSpaceOnUse" x1="1995.67" y1="1434.75" x2="2367.43" y2="929.493">
   <stop offset="0" style="stop-opacity:1; stop-color:#C8C5E2"/>
   <stop offset="0.34902" style="stop-opacity:1; stop-color:#D7D6E5"/>
   <stop offset="0.411765" style="stop-opacity:1; stop-color:white"/>
   <stop offset="1" style="stop-opacity:1; stop-color:#E6E7E8"/>
  </linearGradient>
  <linearGradient id="id6" gradientUnits="userSpaceOnUse" xlink:href="#id3" x1="1646.8" y1="2472.31" x2="1646.8" y2="2005.1">
  </linearGradient>
  <linearGradient id="id7" gradientUnits="userSpaceOnUse" xlink:href="#id5" x1="870.934" y1="1434.75" x2="1242.69" y2="929.493">
  </linearGradient>
  <linearGradient id="id8" gradientUnits="userSpaceOnUse" xlink:href="#id5" x1="7716.64" y1="1723.71" x2="7852.09" y2="1539.63">
  </linearGradient>
  <linearGradient id="id9" gradientUnits="userSpaceOnUse" xlink:href="#id5" x1="7306.85" y1="1723.71" x2="7442.3" y2="1539.63">
  </linearGradient>
  <linearGradient id="id10" gradientUnits="userSpaceOnUse" x1="1535.45" y1="368.351" x2="1758.15" y2="2921.62">
   <stop offset="0" style="stop-opacity:1; stop-color:#FFF212"/>
   <stop offset="1" style="stop-opacity:1; stop-color:#F79333"/>
  </linearGradient>
  <linearGradient id="id11" gradientUnits="userSpaceOnUse" xlink:href="#id10" x1="7548.96" y1="1335.18" x2="7630.1" y2="2265.45">
  </linearGradient>
  <linearGradient id="id12" gradientUnits="userSpaceOnUse" x1="5839.17" y1="1639.83" x2="5839.17" y2="1921.99">
   <stop offset="0" style="stop-opacity:1; stop-color:#FFED16"/>
   <stop offset="1" style="stop-opacity:1; stop-color:#F79533"/>
  </linearGradient>
  <linearGradient id="id13" gradientUnits="userSpaceOnUse" xlink:href="#id12" x1="6516.23" y1="909.509" x2="6516.23" y2="2426.12">
  </linearGradient>
  <linearGradient id="id14" gradientUnits="userSpaceOnUse" xlink:href="#id12" x1="9763.84" y1="1424.04" x2="9763.84" y2="2419.89">
  </linearGradient>
  <linearGradient id="id15" gradientUnits="userSpaceOnUse" xlink:href="#id12" x1="8775.93" y1="903.662" x2="8775.93" y2="2363.51">
  </linearGradient>
  <linearGradient id="id16" gradientUnits="userSpaceOnUse" xlink:href="#id12" x1="4835.02" y1="909.296" x2="4835.02" y2="2332.97">
  </linearGradient>
 </defs>
 <g id="Layer_x0020_1">
  <metadata id="CorelCorpID_0Corel-Layer"/>
  <g id="_544504992">
   <g>
    <circle class="fil0" cx="7590" cy="1800" r="600"/>
    <circle class="fil1" cx="7590" cy="1800" r="539"/>
    <path class="fil2" d="M7304 1913c231,63 340,56 571,0 0,277 -571,277 -571,0z"/>
    <path class="fil3" d="M7305 1909c115,31 200,45 285,45 84,-1 169,-17 284,-45 3,-1 5,1 6,3 0,0 0,1 0,1l0 0c0,102 -76,167 -172,195 -38,11 -78,17 -119,17 -40,0 -80,-6 -118,-17 -96,-28 -172,-93 -172,-195 0,-3 2,-4 5,-4 0,0 1,0 1,0zm285 53c-84,1 -169,-13 -282,-44 3,95 75,155 166,182 36,11 76,16 115,16 40,0 80,-5 116,-16 92,-27 163,-87 166,-182 -113,28 -197,43 -281,44z"/>
    <path class="fil4" d="M7590 1962c-84,1 -169,-13 -282,-44 1,29 8,55 21,78l521 0c13,-23 20,-49 21,-78 -113,28 -197,43 -281,44z"/>
    <circle class="fil5" cx="7415" cy="1703" r="3"/>
    <ellipse class="fil6 str0" cx="7375" cy="1632" rx="126" ry="111"/>
    <ellipse class="fil7" cx="7375" cy="1632" rx="88" ry="78"/>
    <ellipse class="fil8" cx="7375" cy="1632" rx="62" ry="55"/>
    <ellipse class="fil5" cx="7408" cy="1610" rx="20" ry="18"/>
    <circle class="fil5" cx="7824" cy="1703" r="3"/>
    <ellipse class="fil9 str0" cx="7784" cy="1632" rx="126" ry="111"/>
    <ellipse class="fil10" cx="7784" cy="1632" rx="88" ry="78"/>
    <ellipse class="fil8" cx="7784" cy="1632" rx="62" ry="55"/>
    <ellipse class="fil5" cx="7817" cy="1610" rx="20" ry="18"/>
   </g>
   <circle class="fil0" cx="1647" cy="1645" r="1647"/>
   <circle class="fil11" cx="1647" cy="1645" r="1479"/>
   <path class="fil12" d="M862 1954c636,174 934,154 1569,0 0,759 -1569,760 -1569,0z"/>
   <path class="fil3" d="M866 1943c317,87 549,125 781,122 232,-2 465,-46 781,-123 7,-1 13,3 15,9 0,1 0,2 0,3l0 0c0,279 -207,458 -472,536 -102,30 -213,45 -324,45 -111,0 -222,-15 -324,-45 -265,-78 -472,-256 -472,-536 0,-7 5,-12 11,-12 2,0 3,0 4,1zm781 146c-231,2 -462,-35 -773,-120 8,259 205,425 455,499 100,29 209,44 318,44 108,0 217,-15 317,-44 251,-74 448,-241 455,-499 -311,75 -541,118 -772,120z"/>
   <path class="fil4" d="M1647 2089c-231,2 -462,-35 -773,-120 3,80 23,150 57,212l1431 0c35,-62 55,-133 57,-212 -311,75 -541,118 -772,120z"/>
   <circle class="fil5" cx="1167" cy="1379" r="9"/>
   <ellipse class="fil13 str0" cx="1057" cy="1182" rx="345" ry="305"/>
   <ellipse class="fil14" cx="1057" cy="1182" rx="243" ry="215"/>
   <ellipse class="fil8" cx="1057" cy="1182" rx="170" ry="150"/>
   <ellipse class="fil5" cx="1148" cy="1123" rx="55" ry="49"/>
   <circle class="fil5" cx="2292" cy="1379" r="9"/>
   <ellipse class="fil15 str0" cx="2182" cy="1182" rx="345" ry="305"/>
   <ellipse class="fil16" cx="2182" cy="1182" rx="243" ry="215"/>
   <ellipse class="fil8" cx="2182" cy="1182" rx="170" ry="150"/>
   <ellipse class="fil5" cx="2272" cy="1123" rx="55" ry="49"/>
   <path class="fil17" d="M4633 1912l386 0 -191 -460 -195 460zm-550 466l749 -1514 22 0 733 1514 -367 0 -93 -213 -596 0 -95 213 -353 0z"/>
   <polygon class="fil18" points="5571,1922 5571,1640 6108,1640 6108,1922 "/>
   <path class="fil19" d="M6151 2071c37,17 71,29 102,37 31,9 59,13 82,13 70,0 119,-23 149,-68 30,-46 45,-123 45,-233l0 -910 352 0 0 993c0,170 -43,299 -130,389 -87,90 -213,134 -378,134 -31,0 -62,-2 -93,-6 -30,-4 -63,-10 -95,-18l-34 -331z"/>
   <polygon class="fil20" points="8586,2378 8279,2378 8279,932 8586,889 8586,1841 8866,1466 9198,1466 8881,1856 9273,2378 8922,2378 8586,1893 "/>
   <path class="fil21" d="M9591 1837l396 -12 0 -14c0,-48 -17,-88 -51,-119 -34,-30 -76,-46 -127,-46 -57,0 -105,17 -144,50 -38,34 -63,81 -74,141zm605 216l-35 280c-62,30 -123,52 -183,66 -61,14 -121,21 -183,21 -152,0 -274,-44 -368,-131 -93,-88 -139,-202 -139,-342 0,-147 51,-271 153,-372 102,-100 226,-151 372,-151 124,0 227,37 307,111 80,74 120,170 120,287 0,18 -1,47 -4,88l-1 5 -29 42 -622 17c5,61 31,112 77,150 47,38 106,57 176,57 50,0 106,-10 167,-32 61,-22 125,-54 192,-96z"/>
  </g>
 </g>
</svg>
