<?xml version="1.0" encoding="UTF-8"?>
<!DOCTYPE svg PUBLIC "-//W3C//DTD SVG 1.1//EN" "http://www.w3.org/Graphics/SVG/1.1/DTD/svg11.dtd">
<!-- Creator: CorelDRAW X7 -->
<svg xmlns="http://www.w3.org/2000/svg" xml:space="preserve" width="256px" height="256px" version="1.1" style="shape-rendering:geometricPrecision; text-rendering:geometricPrecision; image-rendering:optimizeQuality; fill-rule:evenodd; clip-rule:evenodd"
viewBox="0 0 2560 2560"
 xmlns:xlink="http://www.w3.org/1999/xlink">
 <defs>
  <style type="text/css">
   <![CDATA[
    .str0 {stroke:#A9ABAE;stroke-width:9.00003;stroke-linecap:round;stroke-linejoin:round}
    .fil5 {fill:#FEFEFE}
    .fil8 {fill:#373435}
    .fil0 {fill:#F7DF52}
    .fil4 {fill:#FEFEFE;fill-rule:nonzero}
    .fil3 {fill:#373435;fill-rule:nonzero}
    .fil7 {fill:url(#id0)}
    .fil10 {fill:url(#id1)}
    .fil6 {fill:url(#id2)}
    .fil9 {fill:url(#id3)}
    .fil2 {fill:url(#id4)}
    .fil1 {fill:url(#id5)}
   ]]>
  </style>
  <linearGradient id="id0" gradientUnits="userSpaceOnUse" x1="821.412" y1="1086.98" x2="821.412" y2="753.463">
   <stop offset="0" style="stop-opacity:1; stop-color:#9A3B3E"/>
   <stop offset="1" style="stop-opacity:1; stop-color:#FEFEFE"/>
  </linearGradient>
  <linearGradient id="id1" gradientUnits="userSpaceOnUse" xlink:href="#id0" x1="1695.64" y1="1086.98" x2="1695.64" y2="753.463">
  </linearGradient>
  <linearGradient id="id2" gradientUnits="userSpaceOnUse" x1="676.939" y1="1116.58" x2="965.897" y2="723.864">
   <stop offset="0" style="stop-opacity:1; stop-color:#C8C5E2"/>
   <stop offset="0.34902" style="stop-opacity:1; stop-color:#D7D6E5"/>
   <stop offset="0.411765" style="stop-opacity:1; stop-color:white"/>
   <stop offset="1" style="stop-opacity:1; stop-color:#E6E7E8"/>
  </linearGradient>
  <linearGradient id="id3" gradientUnits="userSpaceOnUse" xlink:href="#id2" x1="1551.17" y1="1116.58" x2="1840.13" y2="723.864">
  </linearGradient>
  <linearGradient id="id4" gradientUnits="userSpaceOnUse" x1="1280" y1="1923.04" x2="1280" y2="1559.9">
   <stop offset="0" style="stop-opacity:1; stop-color:#C54443"/>
   <stop offset="1" style="stop-opacity:1; stop-color:#2E2A2A"/>
  </linearGradient>
  <linearGradient id="id5" gradientUnits="userSpaceOnUse" x1="1193.45" y1="287.706" x2="1366.55" y2="2272.29">
   <stop offset="0" style="stop-opacity:1; stop-color:#FFF212"/>
   <stop offset="1" style="stop-opacity:1; stop-color:#F79333"/>
  </linearGradient>
 </defs>
 <g id="Layer_x0020_1">
  <metadata id="CorelCorpID_0Corel-Layer"/>
  <g id="_549888952">
   <circle class="fil0" cx="1280" cy="1280" r="1280"/>
   <circle class="fil1" cx="1280" cy="1280" r="1150"/>
   <path class="fil2" d="M670 1520c494,136 726,120 1220,0 0,590 -1220,591 -1220,0z"/>
   <path class="fil3" d="M673 1511c246,68 427,98 607,96 181,-2 361,-36 608,-96 4,-1 9,2 11,7 0,1 0,1 0,2l0 0c0,217 -161,356 -367,417 -80,23 -166,35 -252,35 -86,0 -172,-12 -252,-35 -206,-61 -367,-200 -367,-417 0,-5 4,-9 9,-9 1,0 2,0 3,0zm607 114c-179,2 -359,-27 -600,-93 6,201 158,330 353,387 78,23 162,35 247,35 84,0 169,-12 247,-35 195,-57 348,-186 353,-387 -241,58 -420,91 -600,93z"/>
   <path class="fil4" d="M1280 1625c-179,2 -359,-27 -600,-93 1,62 17,117 44,165l1112 0c27,-48 43,-103 44,-165 -241,58 -420,91 -600,93z"/>
   <circle class="fil5" cx="907" cy="1073" r="7"/>
   <ellipse class="fil6 str0" cx="821" cy="920" rx="268" ry="237"/>
   <ellipse class="fil7" cx="821" cy="920" rx="189" ry="167"/>
   <ellipse class="fil8" cx="821" cy="920" rx="132" ry="117"/>
   <ellipse class="fil5" cx="892" cy="874" rx="43" ry="38"/>
   <circle class="fil5" cx="1781" cy="1073" r="7"/>
   <ellipse class="fil9 str0" cx="1696" cy="920" rx="268" ry="237"/>
   <ellipse class="fil10" cx="1696" cy="920" rx="189" ry="167"/>
   <ellipse class="fil8" cx="1696" cy="920" rx="132" ry="117"/>
   <ellipse class="fil5" cx="1766" cy="874" rx="43" ry="38"/>
  </g>
 </g>
</svg>
