<?xml version="1.0" encoding="UTF-8"?>
<!DOCTYPE svg PUBLIC "-//W3C//DTD SVG 1.1//EN" "http://www.w3.org/Graphics/SVG/1.1/DTD/svg11.dtd">
<!-- Creator: CorelDRAW X7 -->
<svg xmlns="http://www.w3.org/2000/svg" xml:space="preserve" width="512px" height="512px" version="1.1" style="shape-rendering:geometricPrecision; text-rendering:geometricPrecision; image-rendering:optimizeQuality; fill-rule:evenodd; clip-rule:evenodd"
viewBox="0 0 5120 5120"
 xmlns:xlink="http://www.w3.org/1999/xlink">
 <defs>
  <style type="text/css">
   <![CDATA[
    .str0 {stroke:#A9ABAE;stroke-width:9.00003;stroke-linecap:round;stroke-linejoin:round}
    .fil5 {fill:#FEFEFE}
    .fil8 {fill:#373435}
    .fil0 {fill:#F7DF52}
    .fil4 {fill:#FEFEFE;fill-rule:nonzero}
    .fil3 {fill:#373435;fill-rule:nonzero}
    .fil7 {fill:url(#id0)}
    .fil10 {fill:url(#id1)}
    .fil9 {fill:url(#id2)}
    .fil6 {fill:url(#id3)}
    .fil2 {fill:url(#id4)}
    .fil1 {fill:url(#id5)}
   ]]>
  </style>
  <linearGradient id="id0" gradientUnits="userSpaceOnUse" x1="1642.84" y1="2173.97" x2="1642.84" y2="1506.93">
   <stop offset="0" style="stop-opacity:1; stop-color:#9A3B3E"/>
   <stop offset="1" style="stop-opacity:1; stop-color:#FEFEFE"/>
  </linearGradient>
  <linearGradient id="id1" gradientUnits="userSpaceOnUse" xlink:href="#id0" x1="3391.29" y1="2173.97" x2="3391.29" y2="1506.93">
  </linearGradient>
  <linearGradient id="id2" gradientUnits="userSpaceOnUse" x1="3102.34" y1="2233.15" x2="3680.24" y2="1447.73">
   <stop offset="0" style="stop-opacity:1; stop-color:#C8C5E2"/>
   <stop offset="0.34902" style="stop-opacity:1; stop-color:#D7D6E5"/>
   <stop offset="0.411765" style="stop-opacity:1; stop-color:white"/>
   <stop offset="1" style="stop-opacity:1; stop-color:#E6E7E8"/>
  </linearGradient>
  <linearGradient id="id3" gradientUnits="userSpaceOnUse" xlink:href="#id2" x1="1353.88" y1="2233.16" x2="1931.79" y2="1447.73">
  </linearGradient>
  <linearGradient id="id4" gradientUnits="userSpaceOnUse" x1="2560" y1="3846.08" x2="2560" y2="3119.8">
   <stop offset="0" style="stop-opacity:1; stop-color:#C54443"/>
   <stop offset="1" style="stop-opacity:1; stop-color:#2E2A2A"/>
  </linearGradient>
  <linearGradient id="id5" gradientUnits="userSpaceOnUse" x1="2386.89" y1="575.411" x2="2733.11" y2="4544.58">
   <stop offset="0" style="stop-opacity:1; stop-color:#FFF212"/>
   <stop offset="1" style="stop-opacity:1; stop-color:#F79333"/>
  </linearGradient>
 </defs>
 <g id="Layer_x0020_1">
  <metadata id="CorelCorpID_0Corel-Layer"/>
  <g id="_549887080">
   <circle class="fil0" cx="2560" cy="2560" r="2560"/>
   <circle class="fil1" cx="2560" cy="2560" r="2299"/>
   <path class="fil2" d="M1341 3040c987,272 1452,240 2438,0 0,1181 -2438,1181 -2438,0z"/>
   <path class="fil3" d="M1347 3023c491,135 852,195 1213,191 361,-4 723,-72 1215,-192 10,-2 20,4 22,14 1,1 1,3 1,4l0 0c0,435 -322,713 -734,834 -159,47 -332,70 -504,70 -172,0 -345,-23 -504,-70 -412,-121 -734,-399 -734,-834 0,-10 8,-18 19,-18 2,0 4,0 6,1zm1213 227c-358,4 -717,-54 -1201,-186 12,402 318,660 707,775 156,46 325,68 494,68 169,0 338,-22 494,-68 389,-115 695,-373 707,-776 -483,117 -842,183 -1201,187z"/>
   <path class="fil4" d="M2560 3250c-358,4 -717,-54 -1201,-186 4,124 35,234 88,330l2226 0c53,-97 84,-207 88,-331 -483,117 -842,183 -1201,187z"/>
   <circle class="fil5" cx="1814" cy="2146" r="14"/>
   <ellipse class="fil6 str0" cx="1643" cy="1840" rx="536" ry="474"/>
   <ellipse class="fil7" cx="1643" cy="1840" rx="377" ry="334"/>
   <ellipse class="fil8" cx="1643" cy="1840" rx="264" ry="233"/>
   <ellipse class="fil5" cx="1784" cy="1748" rx="86" ry="76"/>
   <circle class="fil5" cx="3562" cy="2146" r="14"/>
   <ellipse class="fil9 str0" cx="3391" cy="1840" rx="536" ry="474"/>
   <ellipse class="fil10" cx="3391" cy="1840" rx="377" ry="334"/>
   <ellipse class="fil8" cx="3391" cy="1840" rx="264" ry="233"/>
   <ellipse class="fil5" cx="3532" cy="1748" rx="86" ry="76"/>
  </g>
 </g>
</svg>
