<?xml version="1.0" encoding="UTF-8"?>
<!DOCTYPE svg PUBLIC "-//W3C//DTD SVG 1.1//EN" "http://www.w3.org/Graphics/SVG/1.1/DTD/svg11.dtd">
<!-- Creator: CorelDRAW X7 -->
<svg xmlns="http://www.w3.org/2000/svg" xml:space="preserve" width="72px" height="72px" version="1.1" style="shape-rendering:geometricPrecision; text-rendering:geometricPrecision; image-rendering:optimizeQuality; fill-rule:evenodd; clip-rule:evenodd"
viewBox="0 0 720 720"
 xmlns:xlink="http://www.w3.org/1999/xlink">
 <defs>
  <style type="text/css">
   <![CDATA[
    .str0 {stroke:#A9ABAE;stroke-width:9.0003;stroke-linecap:round;stroke-linejoin:round}
    .fil5 {fill:#FEFEFE}
    .fil8 {fill:#373435}
    .fil0 {fill:#F7DF52}
    .fil4 {fill:#FEFEFE;fill-rule:nonzero}
    .fil3 {fill:#373435;fill-rule:nonzero}
    .fil10 {fill:url(#id0)}
    .fil7 {fill:url(#id1)}
    .fil9 {fill:url(#id2)}
    .fil1 {fill:url(#id3)}
    .fil2 {fill:url(#id4)}
    .fil6 {fill:url(#id5)}
   ]]>
  </style>
  <linearGradient id="id0" gradientUnits="userSpaceOnUse" x1="476.898" y1="305.715" x2="476.898" y2="211.909">
   <stop offset="0" style="stop-opacity:1; stop-color:#9A3B3E"/>
   <stop offset="1" style="stop-opacity:1; stop-color:#FEFEFE"/>
  </linearGradient>
  <linearGradient id="id1" gradientUnits="userSpaceOnUse" xlink:href="#id0" x1="231.019" y1="305.715" x2="231.019" y2="211.909">
  </linearGradient>
  <linearGradient id="id2" gradientUnits="userSpaceOnUse" x1="436.266" y1="314.042" x2="517.541" y2="203.581">
   <stop offset="0" style="stop-opacity:1; stop-color:#C8C5E2"/>
   <stop offset="0.34902" style="stop-opacity:1; stop-color:#D7D6E5"/>
   <stop offset="0.411765" style="stop-opacity:1; stop-color:white"/>
   <stop offset="1" style="stop-opacity:1; stop-color:#E6E7E8"/>
  </linearGradient>
  <linearGradient id="id3" gradientUnits="userSpaceOnUse" x1="335.657" y1="80.9082" x2="384.343" y2="639.092">
   <stop offset="0" style="stop-opacity:1; stop-color:#FFF212"/>
   <stop offset="1" style="stop-opacity:1; stop-color:#F79333"/>
  </linearGradient>
  <linearGradient id="id4" gradientUnits="userSpaceOnUse" x1="360" y1="540.856" x2="360" y2="438.723">
   <stop offset="0" style="stop-opacity:1; stop-color:#C54443"/>
   <stop offset="1" style="stop-opacity:1; stop-color:#2E2A2A"/>
  </linearGradient>
  <linearGradient id="id5" gradientUnits="userSpaceOnUse" xlink:href="#id2" x1="190.388" y1="314.042" x2="271.651" y2="203.581">
  </linearGradient>
 </defs>
 <g id="Layer_x0020_1">
  <metadata id="CorelCorpID_0Corel-Layer"/>
  <g id="_554331904">
   <circle class="fil0" cx="360" cy="360" r="360"/>
   <circle class="fil1" cx="360" cy="360" r="323"/>
   <path class="fil2" d="M189 428c138,38 204,33 342,0 0,166 -342,166 -342,0z"/>
   <path class="fil3" d="M189 425c70,19 120,27 171,27 51,-1 102,-10 171,-27 1,0 3,1 3,2 0,0 0,0 0,1l0 0c0,61 -45,100 -103,117 -23,6 -47,10 -71,10 -24,0 -49,-4 -71,-10 -58,-17 -103,-56 -103,-117 0,-2 1,-3 3,-3 0,0 0,0 0,0zm171 32c-50,1 -101,-8 -169,-26 2,56 45,93 100,109 21,6 45,9 69,9 24,0 48,-3 69,-9 55,-16 98,-53 100,-109 -68,16 -118,26 -169,26z"/>
   <path class="fil4" d="M360 457c-50,1 -101,-8 -169,-26 1,17 5,33 13,46l312 0c8,-13 12,-29 13,-46 -68,16 -118,26 -169,26z"/>
   <circle class="fil5" cx="255" cy="302" r="2"/>
   <ellipse class="fil6 str0" cx="231" cy="259" rx="75" ry="67"/>
   <ellipse class="fil7" cx="231" cy="259" rx="53" ry="47"/>
   <ellipse class="fil8" cx="231" cy="259" rx="37" ry="33"/>
   <ellipse class="fil5" cx="251" cy="246" rx="12" ry="11"/>
   <circle class="fil5" cx="501" cy="302" r="2"/>
   <ellipse class="fil9 str0" cx="477" cy="259" rx="75" ry="67"/>
   <ellipse class="fil10" cx="477" cy="259" rx="53" ry="47"/>
   <ellipse class="fil8" cx="477" cy="259" rx="37" ry="33"/>
   <ellipse class="fil5" cx="497" cy="246" rx="12" ry="11"/>
  </g>
 </g>
</svg>
