<?xml version="1.0" encoding="UTF-8"?>
<!DOCTYPE svg PUBLIC "-//W3C//DTD SVG 1.1//EN" "http://www.w3.org/Graphics/SVG/1.1/DTD/svg11.dtd">
<!-- Creator: CorelDRAW X7 -->
<svg xmlns="http://www.w3.org/2000/svg" xml:space="preserve" width="96px" height="96px" version="1.1" style="shape-rendering:geometricPrecision; text-rendering:geometricPrecision; image-rendering:optimizeQuality; fill-rule:evenodd; clip-rule:evenodd"
viewBox="0 0 960 960"
 xmlns:xlink="http://www.w3.org/1999/xlink">
 <defs>
  <style type="text/css">
   <![CDATA[
    .str0 {stroke:#A9ABAE;stroke-width:9.00022;stroke-linecap:round;stroke-linejoin:round}
    .fil5 {fill:#FEFEFE}
    .fil8 {fill:#373435}
    .fil0 {fill:#F7DF52}
    .fil4 {fill:#FEFEFE;fill-rule:nonzero}
    .fil3 {fill:#373435;fill-rule:nonzero}
    .fil10 {fill:url(#id0)}
    .fil2 {fill:url(#id1)}
    .fil7 {fill:url(#id2)}
    .fil1 {fill:url(#id3)}
    .fil6 {fill:url(#id4)}
    .fil9 {fill:url(#id5)}
   ]]>
  </style>
  <linearGradient id="id0" gradientUnits="userSpaceOnUse" x1="635.874" y1="407.62" x2="635.874" y2="282.538">
   <stop offset="0" style="stop-opacity:1; stop-color:#9A3B3E"/>
   <stop offset="1" style="stop-opacity:1; stop-color:#FEFEFE"/>
  </linearGradient>
  <linearGradient id="id1" gradientUnits="userSpaceOnUse" x1="480" y1="721.152" x2="480" y2="584.967">
   <stop offset="0" style="stop-opacity:1; stop-color:#C54443"/>
   <stop offset="1" style="stop-opacity:1; stop-color:#2E2A2A"/>
  </linearGradient>
  <linearGradient id="id2" gradientUnits="userSpaceOnUse" xlink:href="#id0" x1="308.027" y1="407.62" x2="308.027" y2="282.538">
  </linearGradient>
  <linearGradient id="id3" gradientUnits="userSpaceOnUse" x1="447.543" y1="107.885" x2="512.457" y2="852.115">
   <stop offset="0" style="stop-opacity:1; stop-color:#FFF212"/>
   <stop offset="1" style="stop-opacity:1; stop-color:#F79333"/>
  </linearGradient>
  <linearGradient id="id4" gradientUnits="userSpaceOnUse" x1="253.849" y1="418.711" x2="362.206" y2="271.448">
   <stop offset="0" style="stop-opacity:1; stop-color:#C8C5E2"/>
   <stop offset="0.34902" style="stop-opacity:1; stop-color:#D7D6E5"/>
   <stop offset="0.411765" style="stop-opacity:1; stop-color:white"/>
   <stop offset="1" style="stop-opacity:1; stop-color:#E6E7E8"/>
  </linearGradient>
  <linearGradient id="id5" gradientUnits="userSpaceOnUse" xlink:href="#id4" x1="581.684" y1="418.711" x2="690.052" y2="271.448">
  </linearGradient>
 </defs>
 <g id="Layer_x0020_1">
  <metadata id="CorelCorpID_0Corel-Layer"/>
  <g id="_303184624">
   <circle class="fil0" cx="480" cy="480" r="480"/>
   <circle class="fil1" cx="480" cy="480" r="431"/>
   <path class="fil2" d="M251 570c186,51 273,45 458,0 0,221 -458,221 -458,0z"/>
   <path class="fil3" d="M253 567c92,25 159,36 227,36 68,-1 136,-14 228,-36 2,-1 4,0 4,2 0,0 0,1 0,1l0 0c0,82 -60,134 -138,156 -29,9 -62,14 -94,14 -32,0 -65,-5 -95,-14 -77,-22 -137,-74 -137,-156 0,-2 1,-3 3,-3 1,0 1,0 2,0zm227 42c-67,1 -134,-10 -225,-34 2,75 59,123 132,145 30,8 61,13 93,13 32,0 63,-5 93,-13 73,-22 130,-70 132,-146 -90,22 -158,35 -225,35z"/>
   <path class="fil4" d="M480 609c-67,1 -134,-10 -225,-34 1,23 6,43 16,61l418 0c10,-18 15,-38 16,-62 -90,22 -158,35 -225,35z"/>
   <circle class="fil5" cx="340" cy="402" r="3"/>
   <ellipse class="fil6 str0" cx="308" cy="345" rx="100" ry="89"/>
   <ellipse class="fil7" cx="308" cy="345" rx="71" ry="63"/>
   <ellipse class="fil8" cx="308" cy="345" rx="49" ry="44"/>
   <ellipse class="fil5" cx="334" cy="328" rx="16" ry="14"/>
   <circle class="fil5" cx="668" cy="402" r="3"/>
   <ellipse class="fil9 str0" cx="636" cy="345" rx="100" ry="89"/>
   <ellipse class="fil10" cx="636" cy="345" rx="71" ry="63"/>
   <ellipse class="fil8" cx="636" cy="345" rx="49" ry="44"/>
   <ellipse class="fil5" cx="662" cy="328" rx="16" ry="14"/>
  </g>
 </g>
</svg>
